<svg class="svg-icon" style="width: 1em; height: 1em;vertical-align: middle;fill: currentColor;overflow: hidden;" viewBox="0 0 1024 1024" version="1.1" xmlns="http://www.w3.org/2000/svg"><path d="M445.82 774.78L821 399.58a82.11 82.11 0 0 0 0-116l-48.23-48.23 74.4-74.35a8 8 0 1 0-11.36-11.36L761.42 224l-48.23-48.23a82.24 82.24 0 0 0-116 0l-202.8 202.8L222 551l-54.08-54.08a8 8 0 0 0-11.36 11.36L260 611.68 173.69 698l-39.94-40a8 8 0 0 0-11.36 11.36l159.38 159.42 45.61 45.61A8 8 0 0 0 338.75 863l-39.93-39.93 86.29-86.29 103.42 103.44a8 8 0 0 0 11.36-11.36zM322 473.72l62.63 62.63A8 8 0 0 0 396 525l-62.63-62.63L400 395.66l62.62 62.63A8 8 0 0 0 474 446.93l-62.61-62.63 66.7-66.7 62.63 62.63a8 8 0 0 0 11.36-11.36l-62.63-62.63 66.69-66.7 62.63 62.63a8 8 0 1 0 11.36-11.36l-62.63-62.63 41-41a66.17 66.17 0 0 1 93.26 0L809.66 295a66 66 0 0 1 0 93.26l-375.2 375.16-201.09-201.1z m-34.51 338l-102.4-102.4L271.35 623l102.4 102.4zM847.67 547.92l-6.25-7.72-6.25 7.72c-5.76 7.13-56.32 70.51-56.32 102.53a62.56 62.56 0 0 0 125.11 0c0.04-32.03-50.53-95.45-56.29-102.53z m-6.25 149a46.54 46.54 0 0 1-46.49-46.48c0-19.64 29.41-62.14 46.49-84.46 17.08 22.3 46.48 64.81 46.48 84.46a46.52 46.52 0 0 1-46.48 46.48z"  /></svg>