<svg class="svg-icon" style="width: 1em; height: 1em;vertical-align: middle;fill: currentColor;overflow: hidden;" viewBox="0 0 1024 1024" version="1.1" xmlns="http://www.w3.org/2000/svg"><path d="M778.8 590.9l-186.3 88.3-101.7-251 196.7-38.6z" fill="#FFA000" /><path d="M344.2 387l113-31.5 227.9 189.2 66.1 63.8s35.4 32.5 0 66.9L619.3 783.8s-41 32.8-102.1-7.1l-282-174.4 109-215.3z" fill="#FFCA28" /><path d="M532 417.6l-74.8-62.1-113 31.5-109 215.3 282.1 174.4c61.1 39.8 102.1 7.1 102.1 7.1l1.3-1.1-237.9-317.2L532 417.6z" fill="#FFCA28" /><path d="M751.2 608.5l-66.1-63.8L532 417.6l-149.2 47.8 237.8 317.2 130.6-107.3c35.5-34.3 0-66.8 0-66.8z" fill="#FFB806" /><path d="M277.6 633.2l43.1-42.7c14-13.9 35.8-16.2 52.5-5.6l185.5 118.4c23 14.7 26.3 46.9 6.8 65.9l-23.9 23.4c-12.7 12.5-31.9 15.6-48 7.8l-204.8-99.1c-26.2-12.7-32-47.6-11.2-68.1zM380.4 445.4l40.5-70.3c3.2-5.6 8.3-9.9 14.4-12.3l88.3-34.1c10.1-3.9 21.3-3.6 31.2 0.9l132.6 60-144.8 41.6s-44.8 10.1-72.4 29.2c0 0-46.8 44.1-84.3 8.6 0.1 0.1-11.7-12-5.5-23.6z" fill="#FFA000" /><path d="M825.2 587.1L792 603.6c-8.7 4.3-19.3 0.8-23.6-7.9L658.9 375.5c-4.3-8.7-0.8-19.3 7.9-23.6l33.2-16.5c8.7-4.3 19.3-0.8 23.6 7.9l109.5 220.1c4.4 8.8 0.8 19.3-7.9 23.7z" fill="#ECEFF1" /><path d="M1005 538.7l-154.6 76.9c-8.7 4.3-19.3 0.8-23.6-7.9l-142.2-286c-4.3-8.7-0.8-19.3 7.9-23.6l154.6-76.9c8.7-4.3 19.3-0.8 23.6 7.9l142.2 286c4.3 8.8 0.8 19.3-7.9 23.6z" fill="#455A64" /><path d="M198.8 587.1l33.2 16.5c8.7 4.3 19.3 0.8 23.6-7.9l109.5-220.1c4.3-8.7 0.8-19.3-7.9-23.6L324 335.5c-8.7-4.3-19.3-0.8-23.6 7.9L190.9 563.5c-4.4 8.7-0.8 19.2 7.9 23.6z" fill="#ECEFF1" /><path d="M19 538.7l154.6 76.9c8.7 4.3 19.3 0.8 23.6-7.9l142.2-286c4.3-8.7 0.8-19.3-7.9-23.6l-154.6-76.9c-8.7-4.3-19.3-0.8-23.6 7.9l-142.2 286c-4.3 8.8-0.8 19.3 7.9 23.6z" fill="#455A64" /></svg>